<?xml version="1.0" encoding="UTF-8" standalone="no"?>
<!-- Created with Inkscape (http://www.inkscape.org/) -->

<svg
   version="1.1"
   id="svg1"
   width="546.1333"
   height="546.1333"
   viewBox="0 0 546.1333 546.1333"
   sodipodi:docname="globe.svg"
   inkscape:version="1.4.2 (f4327f4, 2025-05-13)"
   xmlns:inkscape="http://www.inkscape.org/namespaces/inkscape"
   xmlns:sodipodi="http://sodipodi.sourceforge.net/DTD/sodipodi-0.dtd"
   xmlns="http://www.w3.org/2000/svg"
   xmlns:svg="http://www.w3.org/2000/svg">
  <defs
     id="defs1" />
  <sodipodi:namedview
     id="namedview1"
     pagecolor="#ffffff"
     bordercolor="#000000"
     borderopacity="0.25"
     inkscape:showpageshadow="2"
     inkscape:pageopacity="0.0"
     inkscape:pagecheckerboard="0"
     inkscape:deskcolor="#d1d1d1"
     inkscape:zoom="1.4154054"
     inkscape:cx="273.06665"
     inkscape:cy="273.06665"
     inkscape:window-width="1920"
     inkscape:window-height="991"
     inkscape:window-x="-9"
     inkscape:window-y="-9"
     inkscape:window-maximized="1"
     inkscape:current-layer="g1" />
  <g
     inkscape:groupmode="layer"
     inkscape:label="Image"
     id="g1">
    <path
       style="fill:#ffffff"
       d="M 253.33332,545.4928 C 193.05744,539.34356 143.83033,519.76258 100.79999,484.81988 71.115588,460.71471 46.144925,429.39104 28.868191,394.58727 15.612069,367.88298 6.7070228,339.3013 2.4722209,309.86665 c -2.54246647,-17.67181 -2.54246647,-55.92819 0,-73.6 C 11.052259,176.62976 38.164319,122.14476 80.15454,80.15454 101.61747,58.691607 124.31649,42.385046 151.54603,28.868191 178.25032,15.612069 206.832,6.7070228 236.26665,2.4722209 c 17.67181,-2.54246647 55.92819,-2.54246647 73.6,0 59.63689,8.5800381 114.12189,35.6920981 156.11211,77.6823191 21.46293,21.46293 37.76949,44.16195 51.28635,71.39149 13.25612,26.70429 22.16117,55.28597 26.39597,84.72062 2.54247,17.67181 2.54247,55.92819 0,73.6 -8.58004,59.63689 -35.6921,114.12189 -77.68232,156.11211 -41.36191,41.36191 -94.76899,68.3141 -152.70051,77.06119 -13.48593,2.03624 -49.55976,3.51232 -59.94493,2.45285 z m 3.19326,-142.12179 c -1.0024,-1.00239 -34.68383,2.06039 -51.13923,4.65029 -21.3136,3.35452 -27.2547,4.70631 -27.25064,6.2004 0.008,3.0869 8.11529,31.49265 13.86227,48.57199 9.629,28.61623 15.26109,41.95214 18.17223,43.02904 4.66807,1.72684 28.40702,6.1512 37.34947,6.96104 l 9.01264,0.8162 0.27635,-54.83475 c 0.152,-30.15912 0.0246,-55.08651 -0.28309,-55.39421 z m 64.10498,105.95437 c 7.09403,-1.43159 13.99277,-3.00777 15.33054,-3.50265 2.91113,-1.0769 8.54322,-14.41281 18.17222,-43.02904 5.74698,-17.07934 13.85388,-45.48509 13.86227,-48.57199 0.004,-1.40163 -5.3597,-2.68626 -23.97172,-5.74151 -13.64113,-2.23926 -42.62666,-5.28021 -50.32954,-5.28021 h -4.62868 v 55.25157 55.25157 l 9.33333,-0.88744 c 5.13334,-0.48808 15.13754,-2.05872 22.23158,-3.4903 z M 162.03248,473.86664 c -2.90525,-8.65333 -7.50439,-23.89333 -10.2203,-33.86667 -2.71592,-9.97333 -5.01969,-18.2483 -5.11949,-18.38883 -0.62895,-0.88553 -45.59805,15.65578 -47.428387,17.44593 -1.64989,1.61367 23.775297,23.37211 40.089577,34.30798 9.20749,6.17202 25.65608,15.91592 27.23683,16.13471 0.39824,0.0551 -1.65297,-6.97979 -4.55823,-15.63312 z m 226.26726,10.8513 c 12.79597,-7.07794 26.71576,-16.61417 38.90023,-26.64993 11.04733,-9.09915 20.47979,-18.21811 19.66681,-19.01315 -1.82884,-1.7885 -46.79779,-18.32843 -47.42617,-17.44372 -0.0998,0.14053 -2.40357,8.4155 -5.11948,18.38883 -2.71592,9.97334 -7.31505,25.21334 -10.22031,33.86667 -2.90526,8.65333 -5.13488,15.73333 -4.95471,15.73333 0.18017,0 4.29931,-2.19691 9.15363,-4.88203 z m -286.43308,-81.4588 c 7.04,-2.80541 18.32,-6.91189 25.06667,-9.12552 6.74666,-2.21362 12.43843,-4.17104 12.64838,-4.34981 0.20994,-0.17877 -0.40836,-4.9601 -1.37401,-10.62516 -4.26454,-25.01838 -8.05025,-59.97481 -8.08178,-74.62533 -0.009,-4.10667 -0.31359,-9.26667 -0.67723,-11.46667 l -0.66116,-4 H 80.927097 33.066665 l 0,3.86311 c 0,2.1247 0.745919,8.9647 1.657599,15.19999 5.126662,35.06301 17.143783,66.73048 36.966395,97.41371 l 5.30409,8.21015 6.035956,-2.69686 c 3.319776,-1.48328 11.795956,-4.9922 18.835955,-7.79761 z m 372.53888,2.34084 c 19.86013,-30.73791 31.87295,-62.38064 37.0035,-97.47023 0.91168,-6.23529 1.6576,-13.07529 1.6576,-15.19999 v -3.86311 H 465.2062 417.34577 l -0.66116,4 c -0.36363,2.2 -0.66839,7.36 -0.67723,11.46667 -0.0315,14.65052 -3.81724,49.60695 -8.08178,74.62533 -0.96565,5.66506 -1.58395,10.44639 -1.37401,10.62516 0.20995,0.17877 5.90172,2.13619 12.64839,4.34981 15.4746,5.07732 34.67106,12.67049 49.73218,19.67158 0.0727,0.0338 2.53572,-3.65856 5.47338,-8.20522 z M 189.86666,378.26287 c 16.2432,-2.97692 37.41351,-5.50835 55.19999,-6.60051 l 12,-0.73684 v -40.92944 -40.92943 h -48.0733 -48.0733 l 0.58455,8.26667 c 0.3215,4.54666 0.85863,12.82666 1.19362,18.39999 0.82885,13.78974 3.39075,36.27319 5.89481,51.73333 1.14027,7.04 2.0733,13.21204 2.07342,13.71564 1.1e-4,0.5036 1.08021,0.64655 2.40021,0.31767 1.32,-0.32888 8.88,-1.78556 16.8,-3.23708 z m 185.60019,2.80377 c 1.2e-4,-0.44 0.93316,-6.56 2.07342,-13.6 2.50406,-15.46014 5.06596,-37.94359 5.89481,-51.73333 0.33499,-5.57333 0.87212,-13.85333 1.19362,-18.39999 l 0.58455,-8.26667 h -48.0733 -48.0733 v 40.89162 40.89162 l 16.8,1.21072 c 20.70663,1.49227 38.58942,3.80506 54.66666,7.07008 14.34181,2.91258 14.93327,2.98925 14.93354,1.93595 z M 129.44869,253.06665 c 0.36364,-2.2 0.66839,-7.36 0.67723,-11.46666 0.0315,-14.65053 3.81724,-49.60696 8.08178,-74.62534 0.96565,-5.66506 1.58395,-10.44638 1.37401,-10.62516 -0.20995,-0.17877 -5.90172,-2.13619 -12.64838,-4.34981 -12.23438,-4.01418 -32.459707,-11.81043 -43.902625,-16.92313 l -6.035956,-2.69686 -5.30409,8.21015 c -19.822612,30.68323 -31.839733,62.35071 -36.966395,97.41371 -0.91168,6.23529 -1.657599,13.07529 -1.657599,15.2 v 3.8631 h 47.860432 47.860433 z m 127.61796,-36.89253 v -40.89253 l -17.33333,-1.26047 c -20.93689,-1.52253 -37.36477,-3.6428 -55.11022,-7.11283 -7.30867,-1.42916 -13.40306,-2.48391 -13.5431,-2.34387 -1.35529,1.3553 -7.32402,48.23727 -8.38178,65.83557 -0.33499,5.57333 -0.87212,13.85333 -1.19362,18.4 l -0.58455,8.26666 h 48.0733 48.0733 z m 127.56205,32.62587 c -0.3215,-4.54667 -0.85863,-12.82667 -1.19362,-18.4 -1.05776,-17.5983 -7.02648,-64.48027 -8.38178,-65.83557 -0.14004,-0.14004 -6.23443,0.91471 -13.5431,2.34387 -17.74545,3.47003 -34.17333,5.5903 -55.11022,7.11283 l -17.33333,1.26047 v 40.89253 40.89253 h 48.0733 48.0733 z m 128.43794,4.40356 c 0,-2.12471 -0.74592,-8.96471 -1.6576,-15.2 -5.12666,-35.063 -17.14379,-66.73048 -36.9664,-97.41371 l -5.30409,-8.21015 -6.03595,2.69686 c -11.44292,5.1127 -31.66825,12.90895 -43.90262,16.92313 -6.74667,2.21362 -12.43844,4.17104 -12.64839,4.34981 -0.20994,0.17878 0.40836,4.9601 1.37401,10.62516 4.26454,25.01838 8.05026,59.97481 8.08178,74.62534 0.009,4.10666 0.3136,9.26666 0.67723,11.46666 l 0.66116,4 h 47.86043 47.86044 z M 257.06665,87.681754 V 32.430183 l -9.33333,0.887433 c -9.30841,0.885062 -32.94786,5.286026 -37.56211,6.99295 -2.91114,1.0769 -8.54323,14.412814 -18.17223,43.029049 -5.74698,17.079335 -13.85388,45.485085 -13.86227,48.571985 -0.008,2.86973 50.58452,10.5003 72.26328,10.89909 l 6.66666,0.12263 z m 57.69534,53.664096 c 26.65015,-2.57369 53.24044,-7.28603 53.2346,-9.43425 -0.008,-3.0869 -8.11529,-31.49265 -13.86227,-48.571985 -9.629,-28.616235 -15.26109,-41.952149 -18.17222,-43.029049 -4.61426,-1.706924 -28.25371,-6.107888 -37.56212,-6.99295 l -9.33333,-0.887433 v 55.251571 55.251566 h 4.62868 c 2.54577,0 12.02577,-0.71436 21.06666,-1.58747 z M 151.39703,107.46666 c 2.57893,-9.533333 7.21492,-24.893332 10.3022,-34.133331 3.08729,-9.239999 5.46635,-16.799999 5.28681,-16.799999 -1.12885,0 -19.57135,10.829537 -27.68229,16.255197 -15.5845,10.424951 -41.652254,32.742293 -40.03723,34.277003 1.52204,1.44635 43.63212,17.31964 46.88751,17.67413 0.30472,0.0332 2.66407,-7.73967 5.243,-17.273 z m 261.9807,12.68338 c 12.57478,-4.23028 32.33679,-11.94468 33.49127,-13.07381 1.64724,-1.61108 -23.77038,-23.36889 -40.03945,-34.274278 -8.09814,-5.428303 -26.54377,-16.268622 -27.68229,-16.268622 -0.17954,0 2.19952,7.56 5.28681,16.799999 3.08728,9.239999 7.72327,24.599998 10.3022,34.133331 2.57893,9.53333 4.71827,17.33333 4.75409,17.33333 0.0358,0 6.28513,-2.09247 13.88737,-4.64995 z"
       id="path1" />
  </g>
</svg>
